<?xml version="1.0" encoding="utf-8"?>
<!-- Powered by Developer :)  -->
<!DOCTYPE svg PUBLIC "-//W3C//DTD SVG 1.1//EN" "http://www.w3.org/Graphics/SVG/1.1/DTD/svg11.dtd">


<svg version="1.1" xmlns="http://www.w3.org/2000/svg" xmlns:xlink="http://www.w3.org/1999/xlink">
	 
<!-- logo -->

<symbol id="logo">
<path d="M37.1 11.71H26.6l5.25 9.2zm-11.81.77l-5.26 9.2h10.51zm18.39 9.2l-5.26-9.2-5.25 9.2zM33.17 23.2l5.25 9.19 5.26-9.19zm-13.14 0l5.26 9.19 5.25-9.19zm-6.57 9.95h10.51l-5.25-9.18zm36.78 0L45 23.97l-5.25 9.18zM31.85 1l-5.25 9.2h10.5zM45 43.87l5.25-9.18h-10.5zm-26.27 0l5.25-9.18h-10.5zm-11.82.77h10.5l-5.25-9.19zm49.91 0l-5.25-9.19-5.26 9.2zm-10.5 1.53l5.25 9.19 5.25-9.19zm-13.14 0l5.25 9.19 5.26-9.19zm-21.02 9.19l5.25-9.19H6.9zm-11.82.77h10.5l-5.25-9.2zm26.27 0h10.5l-5.25-9.2zm13.14 0h10.5L45 46.93zm18.38-9.2l-5.25 9.2h10.5z"/>
<path fill="#fff" d="M37.1 11.71H26.6l5.25 9.2zm-11.81.77l-5.26 9.2h10.51zm18.39 9.2l-5.26-9.2-5.25 9.2zM33.17 23.2l5.25 9.19 5.26-9.19zm-13.14 0l5.26 9.19 5.25-9.19zm-6.57 9.95h10.51l-5.25-9.18zm36.78 0L45 23.97l-5.25 9.18zM31.85 1l-5.25 9.2h10.5zM45 43.87l5.25-9.18h-10.5zm-26.27 0l5.25-9.18h-10.5zm-11.82.77h10.5l-5.25-9.19zm49.91 0l-5.25-9.19-5.26 9.2zm-10.5 1.53l5.25 9.19 5.25-9.19zm-13.14 0l5.25 9.19 5.26-9.19zm-21.02 9.19l5.25-9.19H6.9zm-11.82.77h10.5l-5.25-9.2zm26.27 0h10.5l-5.25-9.2zm13.14 0h10.5L45 46.93zm18.38-9.2l-5.25 9.2h10.5z"/>
</symbol>
 <!-- icon-player -->
 
 <symbol id="icon-player">
 <path d="M30.93 52.82a2.07 2.07 0 0 1-2.06-2.06V21.23a2.06 2.06 0 0 1 3.38-1.58l17.72 14.77a2.05 2.05 0 0 1 0 3.16L32.25 52.34c-.37.32-.84.48-1.32.48zM33 25.63v20.73L45.43 36zM35.94 71a34.8 34.8 0 0 1-17.1-4.47 2.06 2.06 0 1 1 2.02-3.59 30.99 30.99 0 0 0 36.99-5.1 30.93 30.93 0 0 0 0-43.69 30.93 30.93 0 0 0-43.7 0 30.93 30.93 0 0 0 0 43.69 2.07 2.07 0 0 1-2.91 2.92 35.06 35.06 0 0 1 0-49.52 35.04 35.04 0 0 1 49.52 0 35.06 35.06 0 0 1 0 49.52A35.12 35.12 0 0 1 35.94 71z"/>
 <path d="M30.93 52.82a2.07 2.07 0 0 1-2.06-2.06V21.23a2.06 2.06 0 0 1 3.38-1.58l17.72 14.77a2.05 2.05 0 0 1 0 3.16L32.25 52.34c-.37.32-.84.48-1.32.48zM33 25.63v20.73L45.43 36zM35.94 71a34.8 34.8 0 0 1-17.1-4.47 2.06 2.06 0 1 1 2.02-3.59 30.99 30.99 0 0 0 36.99-5.1 30.93 30.93 0 0 0 0-43.69 30.93 30.93 0 0 0-43.7 0 30.93 30.93 0 0 0 0 43.69 2.07 2.07 0 0 1-2.91 2.92 35.06 35.06 0 0 1 0-49.52 35.04 35.04 0 0 1 49.52 0 35.06 35.06 0 0 1 0 49.52A35.12 35.12 0 0 1 35.94 71z"/>
 </symbol>
 <!-- size -->
 
 <symbol id="size">
 <path d="M21.85.11L.41 11.67l21.44 11.56L43.3 11.67zm0 26.85L4.4 17.55.4 19.7l21.44 11.55L43.3 19.7l-3.99-2.15zm0 8.02L4.4 25.57.4 27.72l21.44 11.56L43.3 27.72l-3.99-2.15z"/>
 <path d="M21.85.11L.41 11.67l21.44 11.56L43.3 11.67zm0 26.85L4.4 17.55.4 19.7l21.44 11.55L43.3 19.7l-3.99-2.15zm0 8.02L4.4 25.57.4 27.72l21.44 11.56L43.3 27.72l-3.99-2.15z"/>
 </symbol>
 
  <!-- search -->
 
  <symbol id="search">
  <path d="M23.76 23.68l-6.19-6.1a9.8 9.8 0 0 0 2.62-6.65c0-5.49-4.52-9.93-10.1-9.93A10.01 10.01 0 0 0 0 10.93c0 5.49 4.52 9.93 10.09 9.93 2.41 0 4.62-.83 6.36-2.22l6.21 6.12c.31.3.8.3 1.1 0 .3-.3.3-.78 0-1.08zm-13.67-4.35a8.48 8.48 0 0 1-8.54-8.4c0-4.64 3.83-8.4 8.54-8.4a8.47 8.47 0 0 1 8.54 8.4c0 4.64-3.82 8.4-8.54 8.4z"/><path fill="#fff" d="M23.76 23.68l-6.19-6.1a9.8 9.8 0 0 0 2.62-6.65c0-5.49-4.52-9.93-10.1-9.93A10.01 10.01 0 0 0 0 10.93c0 5.49 4.52 9.93 10.09 9.93 2.41 0 4.62-.83 6.36-2.22l6.21 6.12c.31.3.8.3 1.1 0 .3-.3.3-.78 0-1.08zm-13.67-4.35a8.48 8.48 0 0 1-8.54-8.4c0-4.64 3.83-8.4 8.54-8.4a8.47 8.47 0 0 1 8.54 8.4c0 4.64-3.82 8.4-8.54 8.4z"/>
  </symbol>
  
  
   <!-- rang -->
   
    <symbol id="rang">
  <path d="M54 42.3c0 .94-.76 1.69-1.69 1.69H1.69a1.69 1.69 0 1 1 0-3.38h50.62c.93 0 1.69.76 1.69 1.69zm0-8.46v1.7a1.7 1.7 0 0 1-1.69 1.69H1.69A1.7 1.7 0 0 1 0 35.54v-1.7A27.1 27.1 0 0 1 25.3 6.77l.01-3.38h-3.37a1.7 1.7 0 0 1 0-3.39h10.12a1.7 1.7 0 0 1 0 3.39h-3.37v3.38A27.1 27.1 0 0 1 54 33.84zm-3.38 0A23.65 23.65 0 0 0 27 10.15 23.65 23.65 0 0 0 3.38 33.84z"/><path fill="#c7b299" d="M54 42.3c0 .94-.76 1.69-1.69 1.69H1.69a1.69 1.69 0 1 1 0-3.38h50.62c.93 0 1.69.76 1.69 1.69zm0-8.46v1.7a1.7 1.7 0 0 1-1.69 1.69H1.69A1.7 1.7 0 0 1 0 35.54v-1.7A27.1 27.1 0 0 1 25.3 6.77l.01-3.38h-3.37a1.7 1.7 0 0 1 0-3.39h10.12a1.7 1.7 0 0 1 0 3.39h-3.37v3.38A27.1 27.1 0 0 1 54 33.84zm-3.38 0A23.65 23.65 0 0 0 27 10.15 23.65 23.65 0 0 0 3.38 33.84z"/>
  </symbol>
  
   <!-- pen -->
  
    <symbol id="pen">
  <path d="M47.67 17.47a1.6 1.6 0 0 0-2.25 0L31.57 31.31l-19.46 8.58-3-3 8.57-19.47L31.53 3.58a1.6 1.6 0 0 0-2.25-2.25L15 15.59.53 48.46 33.4 33.98l14.27-14.26a1.6 1.6 0 0 0 0-2.25zm-20.17 11c.3.3.71.46 1.12.46.4 0 .81-.16 1.13-.46l13.33-13.34a1.59 1.59 0 1 0-2.25-2.25L27.5 26.22a1.6 1.6 0 0 0 0 2.25zM24 24.99a1.62 1.62 0 0 0 2.25 0L39.6 11.65a1.6 1.6 0 0 0-2.25-2.25L24 22.73a1.6 1.6 0 0 0 0 2.26zm-3.48-3.49a1.6 1.6 0 0 0 2.25 0L36.12 8.17a1.59 1.59 0 1 0-2.25-2.25L20.53 19.25a1.6 1.6 0 0 0 0 2.25z"/>
  <path d="M47.67 17.47a1.6 1.6 0 0 0-2.25 0L31.57 31.31l-19.46 8.58-3-3 8.57-19.47L31.53 3.58a1.6 1.6 0 0 0-2.25-2.25L15 15.59.53 48.46 33.4 33.98l14.27-14.26a1.6 1.6 0 0 0 0-2.25zm-20.17 11c.3.3.71.46 1.12.46.4 0 .81-.16 1.13-.46l13.33-13.34a1.59 1.59 0 1 0-2.25-2.25L27.5 26.22a1.6 1.6 0 0 0 0 2.25zM24 24.99a1.62 1.62 0 0 0 2.25 0L39.6 11.65a1.6 1.6 0 0 0-2.25-2.25L24 22.73a1.6 1.6 0 0 0 0 2.26zm-3.48-3.49a1.6 1.6 0 0 0 2.25 0L36.12 8.17a1.59 1.59 0 1 0-2.25-2.25L20.53 19.25a1.6 1.6 0 0 0 0 2.25z"/>
  </symbol>
  
     <!-- message -->
  
    <symbol id="message">
  <path d="M30.25 24.75c0 .76-.62 1.37-1.38 1.37H15.13c-.76 0-1.38-.61-1.38-1.37 0-.76.62-1.38 1.38-1.38h13.74c.76 0 1.38.62 1.38 1.38zM33 16.5c0 .76-.62 1.37-1.38 1.37H12.38a1.37 1.37 0 1 1 0-2.74h19.24c.76 0 1.38.61 1.38 1.37zM22 0C9.85 0 0 8.62 0 19.25c0 6.07 3.23 11.48 8.25 15.01v9.73l9.64-5.84c1.33.22 2.7.35 4.1.35 12.16 0 22-8.62 22-19.25S34.16 0 22 0zm0 35.75c-1.6 0-3.16-.19-4.65-.51l-6.47 3.89.09-6.37C6 29.77 2.75 24.84 2.75 19.25c0-9.11 8.62-16.5 19.25-16.5s19.25 7.39 19.25 16.5-8.62 16.5-19.25 16.5z"/>
  <path fill="#c7b299" d="M30.25 24.75c0 .76-.62 1.37-1.38 1.37H15.13c-.76 0-1.38-.61-1.38-1.37 0-.76.62-1.38 1.38-1.38h13.74c.76 0 1.38.62 1.38 1.38zM33 16.5c0 .76-.62 1.37-1.38 1.37H12.38a1.37 1.37 0 1 1 0-2.74h19.24c.76 0 1.38.61 1.38 1.37zM22 0C9.85 0 0 8.62 0 19.25c0 6.07 3.23 11.48 8.25 15.01v9.73l9.64-5.84c1.33.22 2.7.35 4.1.35 12.16 0 22-8.62 22-19.25S34.16 0 22 0zm0 35.75c-1.6 0-3.16-.19-4.65-.51l-6.47 3.89.09-6.37C6 29.77 2.75 24.84 2.75 19.25c0-9.11 8.62-16.5 19.25-16.5s19.25 7.39 19.25 16.5-8.62 16.5-19.25 16.5z"/>
  </symbol>
  
     <!-- heart -->
  
    <symbol id="heart">
  <path d="M30.25 0a17.99 17.99 0 0 0-1.73.12 10 10 0 0 0-1.32.23l-.63.16-.59.18a12.3 12.3 0 0 0-1.86.77l-.26.13a11.8 11.8 0 0 0-1.04.61l-.63.43-.19.13A13.77 13.77 0 0 0 0 13.75c0 12.44 8 23.7 21.41 30.11.18.09.39.14.59.14.2 0 .41-.05.59-.14C36 37.45 44 26.19 44 13.75 44 6.17 37.83 0 30.25 0zM22 41.1C9.93 35.11 2.75 24.93 2.75 13.75a11 11 0 0 1 17.19-9.07 13.7 13.7 0 0 0-3.44 9.07c0 .76.61 1.37 1.38 1.37.76 0 1.37-.61 1.37-1.37a11 11 0 0 1 4.38-8.76l.15-.12c.22-.16.44-.31.67-.45l.19-.12.68-.37.24-.12a19.36 19.36 0 0 1 .98-.4c.21-.08.43-.15.64-.21l.4-.11.59-.14.55-.08.47-.07a11 11 0 0 1 12.06 10.95c0 11.18-7.18 21.36-19.25 27.35zm16.5-27.35a1.37 1.37 0 0 1-2.75 0c0-3.03-2.47-5.5-5.5-5.5-.76 0-1.38-.62-1.38-1.38 0-.75.62-1.37 1.38-1.37 4.55 0 8.25 3.7 8.25 8.25z"/><path fill="#c7b299" d="M30.25 0a17.99 17.99 0 0 0-1.73.12 10 10 0 0 0-1.32.23l-.63.16-.59.18a12.3 12.3 0 0 0-1.86.77l-.26.13a11.8 11.8 0 0 0-1.04.61l-.63.43-.19.13A13.77 13.77 0 0 0 0 13.75c0 12.44 8 23.7 21.41 30.11.18.09.39.14.59.14.2 0 .41-.05.59-.14C36 37.45 44 26.19 44 13.75 44 6.17 37.83 0 30.25 0zM22 41.1C9.93 35.11 2.75 24.93 2.75 13.75a11 11 0 0 1 17.19-9.07 13.7 13.7 0 0 0-3.44 9.07c0 .76.61 1.37 1.38 1.37.76 0 1.37-.61 1.37-1.37a11 11 0 0 1 4.38-8.76l.15-.12c.22-.16.44-.31.67-.45l.19-.12.68-.37.24-.12a19.36 19.36 0 0 1 .98-.4c.21-.08.43-.15.64-.21l.4-.11.59-.14.55-.08.47-.07a11 11 0 0 1 12.06 10.95c0 11.18-7.18 21.36-19.25 27.35zm16.5-27.35a1.37 1.37 0 0 1-2.75 0c0-3.03-2.47-5.5-5.5-5.5-.76 0-1.38-.62-1.38-1.38 0-.75.62-1.37 1.38-1.37 4.55 0 8.25 3.7 8.25 8.25z"/>
  </symbol>
  
     <!-- gear -->
  
    <symbol id="gear">
  <path d="M43.93 21.85a4.33 4.33 0 0 0-2.61-3.86c-1.44-.51-2.83-1.76-3.24-2.74-.4-.98-.3-2.85.36-4.23a4.37 4.37 0 0 0-.89-4.58 4.32 4.32 0 0 0-4.57-.88c-1.38.65-3.25.76-4.23.35-.99-.4-2.23-1.8-2.74-3.24a4.34 4.34 0 0 0-3.87-2.6 4.32 4.32 0 0 0-3.86 2.6c-.51 1.44-1.76 2.84-2.74 3.24-.98.41-2.85.3-4.23-.35a4.32 4.32 0 0 0-4.57.88 4.33 4.33 0 0 0-.89 4.58c.66 1.38.76 3.25.35 4.23-.4.98-1.79 2.23-3.23 2.74a4.33 4.33 0 0 0-2.61 3.86 4.33 4.33 0 0 0 2.61 3.86c1.44.51 2.83 1.76 3.24 2.74.4.98.3 2.85-.36 4.23a4.3 4.3 0 0 0 .89 4.57 4.3 4.3 0 0 0 4.57.89c1.38-.65 3.25-.76 4.23-.35.98.41 2.23 1.8 2.74 3.24a4.32 4.32 0 0 0 3.86 2.6 4.34 4.34 0 0 0 3.87-2.6c.51-1.44 1.75-2.83 2.73-3.24.99-.41 2.86-.3 4.24.35a4.3 4.3 0 0 0 4.57-.89 4.34 4.34 0 0 0 .89-4.57c-.66-1.38-.77-3.25-.36-4.23.4-.98 1.8-2.23 3.24-2.74a4.33 4.33 0 0 0 2.61-3.86zm-21.79 7.99a7.98 7.98 0 1 1 0-15.98 8 8 0 0 1 0 15.98z"/>
  <path d="M43.93 21.85a4.33 4.33 0 0 0-2.61-3.86c-1.44-.51-2.83-1.76-3.24-2.74-.4-.98-.3-2.85.36-4.23a4.37 4.37 0 0 0-.89-4.58 4.32 4.32 0 0 0-4.57-.88c-1.38.65-3.25.76-4.23.35-.99-.4-2.23-1.8-2.74-3.24a4.34 4.34 0 0 0-3.87-2.6 4.32 4.32 0 0 0-3.86 2.6c-.51 1.44-1.76 2.84-2.74 3.24-.98.41-2.85.3-4.23-.35a4.32 4.32 0 0 0-4.57.88 4.33 4.33 0 0 0-.89 4.58c.66 1.38.76 3.25.35 4.23-.4.98-1.79 2.23-3.23 2.74a4.33 4.33 0 0 0-2.61 3.86 4.33 4.33 0 0 0 2.61 3.86c1.44.51 2.83 1.76 3.24 2.74.4.98.3 2.85-.36 4.23a4.3 4.3 0 0 0 .89 4.57 4.3 4.3 0 0 0 4.57.89c1.38-.65 3.25-.76 4.23-.35.98.41 2.23 1.8 2.74 3.24a4.32 4.32 0 0 0 3.86 2.6 4.34 4.34 0 0 0 3.87-2.6c.51-1.44 1.75-2.83 2.73-3.24.99-.41 2.86-.3 4.24.35a4.3 4.3 0 0 0 4.57-.89 4.34 4.34 0 0 0 .89-4.57c-.66-1.38-.77-3.25-.36-4.23.4-.98 1.8-2.23 3.24-2.74a4.33 4.33 0 0 0 2.61-3.86zm-21.79 7.99a7.98 7.98 0 1 1 0-15.98 8 8 0 0 1 0 15.98z"/>
  </symbol>
  
     <!-- folder -->
  
    <symbol id="folder">
  <path d="M9 13.24a6.8 6.8 0 0 1 5.74-3.6h26.21V7.98a2.48 2.48 0 0 0-2.46-2.48H27.67V4.06A3.7 3.7 0 0 0 23.99.33H17.7c-.98 0-1.91.39-2.61 1.1-.7.7-1.08 1.63-1.08 2.63V5.5H3.2A2.48 2.48 0 0 0 .74 7.98v22.17zm7.47-9.18c0-.33.13-.64.36-.88.23-.24.54-.36.87-.36h6.29c.68 0 1.23.55 1.23 1.24V5.5h-8.75zm34.94 10.28c.6-1.22-.02-2.23-1.37-2.23h-35.3a4.34 4.34 0 0 0-3.54 2.23L1.71 33.76c-.6 1.22.02 2.22 1.37 2.22h35.3c1.35 0 2.95-1 3.54-2.22z"/>
  <path d="M9 13.24a6.8 6.8 0 0 1 5.74-3.6h26.21V7.98a2.48 2.48 0 0 0-2.46-2.48H27.67V4.06A3.7 3.7 0 0 0 23.99.33H17.7c-.98 0-1.91.39-2.61 1.1-.7.7-1.08 1.63-1.08 2.63V5.5H3.2A2.48 2.48 0 0 0 .74 7.98v22.17zm7.47-9.18c0-.33.13-.64.36-.88.23-.24.54-.36.87-.36h6.29c.68 0 1.23.55 1.23 1.24V5.5h-8.75zm34.94 10.28c.6-1.22-.02-2.23-1.37-2.23h-35.3a4.34 4.34 0 0 0-3.54 2.23L1.71 33.76c-.6 1.22.02 2.22 1.37 2.22h35.3c1.35 0 2.95-1 3.54-2.22z"/>
  </symbol>
  
     <!-- coffe -->
  
      <symbol id="coffe">
  <path d="M44.8 41.5H1.24c-.68 0-1.23.56-1.23 1.25S.55 44 1.23 44h43.58c.68 0 1.23-.56 1.23-1.25s-.55-1.25-1.23-1.25zM21.78 22.21a1.2 1.2 0 0 0 1.74-.06c.47-.5.44-1.3-.06-1.77-2.11-2-1.66-6.07.16-8.37 2.47-3.12 3-8.68-.16-11.67a1.22 1.22 0 0 0-1.74.06c-.47.5-.44 1.3.06 1.77 1.9 1.79 1.86 5.82-.09 8.28a10.17 10.17 0 0 0-2.1 5.95 7.57 7.57 0 0 0 2.19 5.81zm20.08-8.84h-1.97v-2.14c0-.69-.55-1.25-1.23-1.25H28.13c-.68 0-1.23.56-1.23 1.25s.55 1.25 1.23 1.25h9.28v11.16a11.1 11.1 0 0 1-11 11.16h-6.77c-6.07 0-11.01-5-11.01-11.16V12.48h5.13a10.44 10.44 0 0 0-.88 3.92 7.57 7.57 0 0 0 2.18 5.81c.5.47 1.28.45 1.75-.06.46-.5.44-1.3-.06-1.77-2.12-2-1.67-6.07.15-8.37 2.47-3.12 3.01-8.68-.15-11.67A1.22 1.22 0 0 0 15 .4c-.46.5-.43 1.29.06 1.77 1.79 1.68 1.86 5.33.25 7.81H7.4c-.68 0-1.24.56-1.24 1.25v12.41c0 7.54 6.05 13.66 13.48 13.66h6.76c5.84 0 10.82-3.78 12.7-9.05h2.75A6.2 6.2 0 0 0 48 22.01v-2.4a6.2 6.2 0 0 0-6.15-6.24zm3.68 8.64a3.72 3.72 0 0 1-3.68 3.74h-1.97v-9.87h1.97a3.71 3.71 0 0 1 3.68 3.73z"/><path fill="#c7b299" d="M44.8 41.5H1.24c-.68 0-1.23.56-1.23 1.25S.55 44 1.23 44h43.58c.68 0 1.23-.56 1.23-1.25s-.55-1.25-1.23-1.25zM21.78 22.21a1.2 1.2 0 0 0 1.74-.06c.47-.5.44-1.3-.06-1.77-2.11-2-1.66-6.07.16-8.37 2.47-3.12 3-8.68-.16-11.67a1.22 1.22 0 0 0-1.74.06c-.47.5-.44 1.3.06 1.77 1.9 1.79 1.86 5.82-.09 8.28a10.17 10.17 0 0 0-2.1 5.95 7.57 7.57 0 0 0 2.19 5.81zm20.08-8.84h-1.97v-2.14c0-.69-.55-1.25-1.23-1.25H28.13c-.68 0-1.23.56-1.23 1.25s.55 1.25 1.23 1.25h9.28v11.16a11.1 11.1 0 0 1-11 11.16h-6.77c-6.07 0-11.01-5-11.01-11.16V12.48h5.13a10.44 10.44 0 0 0-.88 3.92 7.57 7.57 0 0 0 2.18 5.81c.5.47 1.28.45 1.75-.06.46-.5.44-1.3-.06-1.77-2.12-2-1.67-6.07.15-8.37 2.47-3.12 3.01-8.68-.15-11.67A1.22 1.22 0 0 0 15 .4c-.46.5-.43 1.29.06 1.77 1.79 1.68 1.86 5.33.25 7.81H7.4c-.68 0-1.24.56-1.24 1.25v12.41c0 7.54 6.05 13.66 13.48 13.66h6.76c5.84 0 10.82-3.78 12.7-9.05h2.75A6.2 6.2 0 0 0 48 22.01v-2.4a6.2 6.2 0 0 0-6.15-6.24zm3.68 8.64a3.72 3.72 0 0 1-3.68 3.74h-1.97v-9.87h1.97a3.71 3.71 0 0 1 3.68 3.73z"/>
  </symbol>
  
     <!-- clients -->
  
      <symbol id="clients">
  <path d="M19.94 30.25c5.68 0 10.31-5.63 10.31-12.55 0-6.92-4.63-12.54-10.31-12.54-2.82 0-5.44 1.34-7.4 3.78a14.04 14.04 0 0 0-2.91 8.76c0 6.92 4.62 12.55 10.3 12.55zm0-22.34c4.17 0 7.56 4.39 7.56 9.79 0 5.41-3.4 9.8-7.56 9.8-4.17 0-7.57-4.39-7.57-9.8 0-5.4 3.4-9.79 7.57-9.79zm8.66 20.96c-.76 0-1.38.62-1.38 1.38 0 .76.62 1.37 1.38 1.37 4.7 0 8.52 3.83 8.52 8.53 0 .61-.49 1.1-1.1 1.1H3.85c-.6 0-1.1-.49-1.1-1.1 0-4.7 3.82-8.53 8.52-8.53.76 0 1.38-.61 1.38-1.37 0-.76-.62-1.38-1.38-1.38A11.29 11.29 0 0 0 0 40.15 3.86 3.86 0 0 0 3.85 44h32.17a3.86 3.86 0 0 0 3.85-3.85A11.3 11.3 0 0 0 28.6 28.87zM20.94 3.63a5.99 5.99 0 0 1 3.12-.88c4.17 0 7.57 4.4 7.57 9.8 0 .97-.11 1.92-.33 2.82-.17.74.29 1.48 1.03 1.66A1.37 1.37 0 0 0 33.98 16c.26-1.11.4-2.27.4-3.45C34.38 5.63 29.75 0 24.05 0c-1.56 0-3.12.44-4.52 1.26a1.38 1.38 0 0 0 1.4 2.37zM44 34.74c0 .55-.11 1.07-.33 1.57-.23.51-.73.81-1.26.81-.18 0-.38-.03-.56-.11-.69-.31-1-1.12-.7-1.82.07-.14.1-.29.1-.45 0-4.7-3.55-8.62-8.25-8.62-.76 0-1.37-.61-1.37-1.37 0-.76.61-1.38 1.37-1.38 6.22 0 11 5.16 11 11.37z"/><path fill="#c7b299" d="M19.94 30.25c5.68 0 10.31-5.63 10.31-12.55 0-6.92-4.63-12.54-10.31-12.54-2.82 0-5.44 1.34-7.4 3.78a14.04 14.04 0 0 0-2.91 8.76c0 6.92 4.62 12.55 10.3 12.55zm0-22.34c4.17 0 7.56 4.39 7.56 9.79 0 5.41-3.4 9.8-7.56 9.8-4.17 0-7.57-4.39-7.57-9.8 0-5.4 3.4-9.79 7.57-9.79zm8.66 20.96c-.76 0-1.38.62-1.38 1.38 0 .76.62 1.37 1.38 1.37 4.7 0 8.52 3.83 8.52 8.53 0 .61-.49 1.1-1.1 1.1H3.85c-.6 0-1.1-.49-1.1-1.1 0-4.7 3.82-8.53 8.52-8.53.76 0 1.38-.61 1.38-1.37 0-.76-.62-1.38-1.38-1.38A11.29 11.29 0 0 0 0 40.15 3.86 3.86 0 0 0 3.85 44h32.17a3.86 3.86 0 0 0 3.85-3.85A11.3 11.3 0 0 0 28.6 28.87zM20.94 3.63a5.99 5.99 0 0 1 3.12-.88c4.17 0 7.57 4.4 7.57 9.8 0 .97-.11 1.92-.33 2.82-.17.74.29 1.48 1.03 1.66A1.37 1.37 0 0 0 33.98 16c.26-1.11.4-2.27.4-3.45C34.38 5.63 29.75 0 24.05 0c-1.56 0-3.12.44-4.52 1.26a1.38 1.38 0 0 0 1.4 2.37zM44 34.74c0 .55-.11 1.07-.33 1.57-.23.51-.73.81-1.26.81-.18 0-.38-.03-.56-.11-.69-.31-1-1.12-.7-1.82.07-.14.1-.29.1-.45 0-4.7-3.55-8.62-8.25-8.62-.76 0-1.37-.61-1.37-1.37 0-.76.61-1.38 1.37-1.38 6.22 0 11 5.16 11 11.37z"/>
  </symbol>
    
    <!-- close -->
    
<symbol id="close">
            <g>
                <g>
                <path fill-rule="evenodd" clip-rule="evenodd" fill="#E45028" d="M9.831,7.494l4.673-4.673c0.646-0.646,0.646-1.691,0-2.337
                    c-0.646-0.645-1.691-0.645-2.337,0L7.494,5.157L2.82,0.483c-0.646-0.645-1.691-0.645-2.337,0c-0.645,0.646-0.645,1.691,0,2.337
                    l4.673,4.673l-4.673,4.673c-0.645,0.646-0.645,1.691,0,2.337c0.646,0.646,1.691,0.646,2.337,0l4.673-4.673l4.673,4.673
                    c0.646,0.646,1.691,0.646,2.337,0s0.646-1.691,0-2.337L9.831,7.494z"/>
                </g>
            </g>
</symbol>
    
</svg>
